<svg version="1.1" xmlns="http://www.w3.org/2000/svg" style="display: block;" viewBox="0 0 1980 2048" width="1636" height="1692" preserveAspectRatio="none">
<path transform="translate(0,0)" fill="rgb(19,53,98)" d="M 1009.28 45.453 L 1031.06 45.1261 L 1031.06 1818 C 918.699 1816.41 819.178 1798.18 712.171 1766.28 C 668.582 1793.12 621.191 1819.41 576.818 1845.27 L 303.729 2003.37 C 316.657 1961.79 329.185 1920.09 341.312 1878.27 C 350.454 1846.38 360.731 1807.8 371.121 1776.76 L 417.752 1616.58 C 385.057 1594.57 350.486 1564.02 321.441 1537.01 C -26.2267 1213.68 -42.4044 707.238 285.284 360.543 C 418.486 220.711 588.824 121.792 776.291 75.4031 C 852.626 56.9275 930.757 46.884 1009.28 45.453 z"/>
<path transform="translate(0,0)" fill="rgb(190,47,103)" d="M 969.225 98.4239 C 973.43 97.9632 981.663 97.9615 986.177 97.838 L 986.025 1764.86 C 898.334 1759.59 790.857 1739.35 707.42 1710.21 C 677.713 1728.48 644.762 1746.46 614.408 1764.14 L 391.214 1894.03 L 460.907 1654.72 C 466.85 1636.3 472.305 1616.45 477.766 1597.79 C 442.606 1573.33 408.751 1547.04 376.34 1519.03 C 222.393 1385.62 114.415 1191.26 100.784 986.514 C 86.6419 774.106 157.461 582.02 296.467 422.438 C 437.266 263.312 626.693 155.162 835.3 114.802 C 881.058 105.875 922.996 101.571 969.225 98.4239 z"/>
<path transform="translate(0,0)" fill="rgb(11,133,158)" d="M 1074.85 44.552 C 1099.06 45.0959 1123.24 46.5208 1147.35 48.8237 C 1163.55 50.3394 1181.96 53.1382 1197.89 53.333 C 1204.45 89.4022 1209.38 125.002 1216 161.002 C 1218.08 172.319 1218.89 186.595 1221.26 197.116 C 1251.58 204.223 1293.21 215.354 1321.96 227.579 C 1337.55 210.403 1355.58 184.647 1371.29 166.376 C 1377.52 159.129 1405.73 124.789 1408.72 119.405 C 1427.15 128.764 1444.04 136.549 1462.46 146.516 C 1497.53 165.744 1531.3 187.261 1563.54 210.927 C 1573.87 218.534 1589.88 230.034 1598.31 238.739 C 1594.92 245.378 1590.44 259.917 1587.45 267.947 C 1578.54 291.21 1569.96 314.598 1561.71 338.102 C 1558.1 348.173 1550.88 363.748 1548.98 372.997 C 1564.89 389.109 1608.02 431.442 1618.18 448.869 C 1632.92 443.642 1647.12 437.449 1661.74 432.135 C 1690.16 421.806 1722.33 411.784 1750.16 400.796 C 1782.8 443.716 1811.66 497.545 1834.64 546.053 C 1842.69 563.047 1850.7 585.43 1858.35 600.573 C 1834.14 620.527 1810.1 640.689 1786.23 661.055 C 1779.06 667.139 1754.28 688.813 1747.92 692.378 C 1757.28 729.81 1765.97 757.67 1772.76 796.51 C 1799.32 801.397 1824.96 805.825 1851.39 811.435 C 1864.36 814.184 1899.83 822.487 1911.76 823.282 C 1916.88 876.791 1918.06 930.603 1915.3 984.285 C 1914.28 1006.58 1913.09 1031.27 1908.62 1053.21 C 1882.32 1058.21 1855.69 1063.85 1829.23 1067.64 C 1809.24 1070.5 1789.51 1073.93 1769.62 1077.38 C 1760.67 1113.58 1754.02 1143.47 1741.52 1178.97 C 1747.08 1182.56 1767.77 1201.38 1773.89 1206.75 L 1848.35 1272.64 C 1833.36 1311.14 1798.79 1376.67 1776.1 1410.98 C 1768.64 1422.24 1760.97 1433.36 1753.09 1444.33 C 1747.53 1452.03 1738.4 1463.74 1734.39 1471.56 C 1698.54 1455.6 1660.2 1442.37 1624.11 1426.82 C 1617.32 1423.9 1609.62 1421.96 1602.84 1418.84 C 1580.44 1440.76 1553.77 1473.65 1529.16 1493.25 C 1534.97 1505.55 1577.12 1624.67 1576.19 1628.7 C 1520.93 1672.3 1451.35 1716.9 1385.57 1742.46 C 1370.37 1720.5 1350.11 1696.24 1333.8 1674.44 C 1326.49 1664.68 1307.09 1638.43 1299.86 1630.63 C 1264.64 1644.52 1237.67 1650.04 1201.5 1659.44 C 1199.54 1669.97 1197.53 1680.54 1196.13 1691.16 C 1191.39 1727.16 1182.87 1763.58 1178.63 1799.61 C 1145.13 1804.29 1108.67 1808.84 1074.84 1808.96 L 1074.85 1760.08 L 1074.8 1475.05 L 1074.77 1424.77 L 1074.84 1198.76 L 1074.78 1082.06 L 1074.75 774.987 C 1075.25 735.705 1074.84 695.225 1074.87 655.861 L 1074.8 428.946 L 1074.87 379.082 L 1074.84 92.9918 L 1074.85 44.552 z"/>
<path transform="translate(0,0)" fill="rgb(11,133,158)" d="M 1074.8 428.946 C 1196.91 430.956 1313.27 481.152 1398.53 568.593 C 1494.41 665.753 1547.19 797.393 1544.97 933.878 C 1544.1 1068.8 1489.03 1197.71 1392.16 1291.63 C 1307.75 1375.67 1193.87 1423.44 1074.77 1424.77 L 1074.84 1198.76 L 1074.78 1082.06 L 1074.75 774.987 C 1075.25 735.705 1074.84 695.225 1074.87 655.861 L 1074.8 428.946 z"/>
<path transform="translate(0,0)" fill="rgb(19,53,98)" d="M 1074.87 655.861 C 1144.03 657.982 1208.36 684.582 1256.18 735.019 C 1306.9 788.992 1334.07 860.913 1331.73 934.937 C 1329.48 1011.82 1299.56 1080.38 1243.1 1133.04 C 1197.58 1175.81 1137.3 1199.36 1074.84 1198.76 L 1074.78 1082.06 L 1074.75 774.987 C 1075.25 735.705 1074.84 695.225 1074.87 655.861 z"/>
<path transform="translate(0,0)" fill="rgb(11,133,158)" d="M 1074.75 774.987 C 1113.95 775.718 1147.36 790.077 1174.52 818.496 C 1203.51 849.405 1219.24 890.447 1218.31 932.816 C 1216.47 1010.18 1153.81 1080.55 1074.78 1082.06 L 1074.75 774.987 z"/>
<path transform="translate(0,0)" fill="rgb(19,53,98)" d="M 1074.85 44.552 C 1099.06 45.0959 1123.24 46.5208 1147.35 48.8237 C 1163.55 50.3394 1181.96 53.1382 1197.89 53.333 C 1204.45 89.4022 1209.38 125.002 1216 161.002 C 1218.08 172.319 1218.89 186.595 1221.26 197.116 C 1251.58 204.223 1293.21 215.354 1321.96 227.579 C 1337.55 210.403 1355.58 184.647 1371.29 166.376 C 1377.52 159.129 1405.73 124.789 1408.72 119.405 C 1427.15 128.764 1444.04 136.549 1462.46 146.516 C 1497.53 165.744 1531.3 187.261 1563.54 210.927 C 1573.87 218.534 1589.88 230.034 1598.31 238.739 C 1594.92 245.378 1590.44 259.917 1587.45 267.947 C 1578.54 291.21 1569.96 314.598 1561.71 338.102 C 1558.1 348.173 1550.88 363.748 1548.98 372.997 C 1564.89 389.109 1608.02 431.442 1618.18 448.869 C 1632.92 443.642 1647.12 437.449 1661.74 432.135 C 1690.16 421.806 1722.33 411.784 1750.16 400.796 C 1782.8 443.716 1811.66 497.545 1834.64 546.053 C 1842.69 563.047 1850.7 585.43 1858.35 600.573 C 1834.14 620.527 1810.1 640.689 1786.23 661.055 C 1779.06 667.139 1754.28 688.813 1747.92 692.378 C 1757.28 729.81 1765.97 757.67 1772.76 796.51 C 1799.32 801.397 1824.96 805.825 1851.39 811.435 C 1864.36 814.184 1899.83 822.487 1911.76 823.282 C 1916.88 876.791 1918.06 930.603 1915.3 984.285 C 1914.28 1006.58 1913.09 1031.27 1908.62 1053.21 C 1882.32 1058.21 1855.69 1063.85 1829.23 1067.64 C 1809.24 1070.5 1789.51 1073.93 1769.62 1077.38 C 1760.67 1113.58 1754.02 1143.47 1741.52 1178.97 C 1747.08 1182.56 1767.77 1201.38 1773.89 1206.75 L 1848.35 1272.64 C 1833.36 1311.14 1798.79 1376.67 1776.1 1410.98 C 1768.64 1422.24 1760.97 1433.36 1753.09 1444.33 C 1747.53 1452.03 1738.4 1463.74 1734.39 1471.56 C 1698.54 1455.6 1660.2 1442.37 1624.11 1426.82 C 1617.32 1423.9 1609.62 1421.96 1602.84 1418.84 C 1580.44 1440.76 1553.77 1473.65 1529.16 1493.25 C 1534.97 1505.55 1577.12 1624.67 1576.19 1628.7 C 1520.93 1672.3 1451.35 1716.9 1385.57 1742.46 C 1370.37 1720.5 1350.11 1696.24 1333.8 1674.44 C 1326.49 1664.68 1307.09 1638.43 1299.86 1630.63 C 1264.64 1644.52 1237.67 1650.04 1201.5 1659.44 C 1199.54 1669.97 1197.53 1680.54 1196.13 1691.16 C 1191.39 1727.16 1182.87 1763.58 1178.63 1799.61 C 1145.13 1804.29 1108.67 1808.84 1074.84 1808.96 L 1074.85 1760.08 C 1094.76 1760.01 1117.8 1757.81 1137.48 1755.69 C 1140.44 1743.14 1141.17 1731.33 1143.52 1718.98 C 1149.97 1685.1 1154.64 1651.24 1161.43 1617.41 C 1179.8 1613.22 1199.22 1610.97 1217.21 1605.58 C 1239.37 1598.95 1262.02 1593.51 1283.52 1584.98 C 1293.14 1581.16 1306.52 1574.86 1316.44 1573.04 C 1321.5 1581.72 1333.39 1595.2 1339.66 1603.78 C 1358.15 1629.06 1382.89 1656.97 1400.28 1682.34 C 1414 1674.25 1428.16 1667.85 1442.1 1660.09 C 1469.22 1645.23 1495.25 1628.47 1520 1609.94 C 1513.92 1590 1505.26 1567.28 1498.38 1547.16 C 1491.11 1525.89 1482.47 1497.59 1473.74 1477.46 C 1481.68 1471.83 1495.74 1459.2 1503.05 1452.49 C 1522.33 1434.62 1540.83 1415.91 1558.48 1396.42 C 1569.16 1384.41 1579.15 1371.71 1589.76 1359.56 C 1600 1364.76 1610.36 1367.91 1620.89 1372.38 C 1652.64 1385.86 1685.07 1398.14 1717.2 1410.66 C 1724.15 1402.67 1729.83 1393.27 1735.59 1384.33 C 1747.95 1365.36 1759.46 1345.86 1770.11 1325.88 C 1776.67 1313.53 1783.56 1298.31 1790.34 1286.77 C 1775.56 1272.13 1753.87 1254.41 1737.77 1240.31 C 1723.48 1227.79 1699.48 1204.83 1685.06 1194.52 C 1701.69 1153.96 1725.66 1078.75 1727.54 1035.52 C 1742.73 1032.49 1757.64 1030.58 1772.81 1027.85 L 1866.53 1010.52 C 1869.74 958.381 1872.39 917.591 1866.81 864.619 C 1859.7 862.759 1853.02 861.786 1845.82 860.598 C 1807.54 854.283 1769.83 845.669 1731.61 839.053 C 1728.69 824.14 1727.53 808.719 1724.66 793.886 C 1718.77 763.37 1711.18 733.207 1701.92 703.538 C 1699.01 694.432 1695.31 685.215 1692.24 675.925 C 1703.58 668.983 1735.03 640.307 1747.16 630.052 C 1762.76 616.859 1785.95 598.877 1800.1 585.354 C 1791.71 569.244 1785.15 551.221 1775.99 534.324 C 1762.05 508.614 1747.18 484.375 1733.22 458.722 C 1709.97 469.131 1681.53 476.991 1657.51 486.595 C 1639.99 493.602 1621.22 500.736 1603.07 505.754 C 1597.72 500.482 1592.89 493.334 1588.18 487.363 C 1559.41 450.853 1527.49 417.869 1492.05 387.834 C 1496.29 372.777 1502.96 358.384 1508.09 343.664 C 1518.29 314.414 1531.4 284.488 1541.01 255.167 C 1508.98 228.83 1457.75 199.95 1421.42 179.873 C 1399.19 210.077 1373.82 238.514 1350.9 268.234 C 1345.73 274.937 1340.66 280.54 1336.25 287.902 C 1302.23 268.925 1219.26 243.517 1180.72 239.76 C 1176.29 220.401 1174.56 201.506 1171.01 182.161 C 1165.88 154.222 1162.43 126.244 1157.37 98.3246 C 1132.89 95.2125 1099.8 93.1321 1074.84 92.9918 L 1074.85 44.552 z"/>
<path transform="translate(0,0)" fill="rgb(19,53,98)" d="M 1074.87 379.082 C 1112.34 381.295 1150.57 383.796 1186.92 393.187 C 1612.98 503.271 1731.99 1058.52 1405.81 1345.21 C 1316.6 1423.62 1194.4 1477.27 1074.8 1475.05 L 1074.77 1424.77 C 1193.87 1423.44 1307.75 1375.67 1392.16 1291.63 C 1489.03 1197.71 1544.1 1068.8 1544.97 933.878 C 1547.19 797.393 1494.41 665.753 1398.53 568.593 C 1313.27 481.152 1196.91 430.956 1074.8 428.946 L 1074.87 379.082 z"/>
</svg>
